<svg width="261" height="38" viewBox="0 0 261 38" fill="none" xmlns="http://www.w3.org/2000/svg">
<path d="M261 3.86391C261 3.86391 259.8 -2.60321 251.596 3.90165C251.6 3.90165 259.33 10.4731 261 3.86391ZM259.117 3.89942C259.117 3.98186 259.084 4.06092 259.025 4.11921C258.966 4.1775 258.887 4.21024 258.803 4.21024C258.72 4.21024 258.641 4.1775 258.582 4.11921C258.523 4.06092 258.49 3.98186 258.49 3.89942C258.49 3.81699 258.523 3.73794 258.582 3.67965C258.641 3.62136 258.72 3.58862 258.803 3.58862C258.887 3.58862 258.966 3.62136 259.025 3.67965C259.084 3.73794 259.117 3.81699 259.117 3.89942ZM253.633 3.91274C253.633 3.91274 254.162 1.96573 257.923 3.8972C257.923 3.8972 254.424 5.89306 253.633 3.91274V3.91274Z" fill="#5B5B5B"/>
<path d="M250.993 4.78969C250.88 4.78998 250.767 4.76811 250.662 4.72531C250.557 4.68251 250.462 4.61964 250.382 4.54027C250.301 4.4609 250.237 4.36659 250.193 4.26273C250.15 4.15887 250.127 4.0475 250.127 3.93496C250.126 3.82253 250.148 3.71108 250.191 3.60701C250.234 3.50295 250.297 3.40828 250.377 3.32847C250.457 3.24866 250.552 3.18526 250.656 3.1419C250.761 3.09854 250.873 3.07608 250.987 3.07579V3.07579C251.1 3.0752 251.212 3.0968 251.317 3.13935C251.422 3.18191 251.518 3.24458 251.598 3.32377C251.679 3.40296 251.743 3.49713 251.786 3.60086C251.83 3.7046 251.853 3.81586 251.853 3.92829V3.92829C251.854 4.04083 251.832 4.15238 251.789 4.25658C251.746 4.36077 251.683 4.45556 251.603 4.53555C251.523 4.61554 251.428 4.67916 251.324 4.72276C251.219 4.76637 251.107 4.78911 250.993 4.78969V4.78969Z" fill="#5B5B5B"/>
<path d="M244.348 4.81633C244.118 4.81634 243.898 4.7265 243.736 4.56639C243.573 4.40629 243.481 4.1889 243.479 3.9616V3.9616C243.481 3.73489 243.574 3.51829 243.736 3.35902C243.899 3.19974 244.119 3.1107 244.348 3.1113C244.461 3.11072 244.573 3.13233 244.678 3.17488C244.783 3.21743 244.879 3.28009 244.959 3.35929C245.04 3.43848 245.104 3.53264 245.147 3.63638C245.191 3.74011 245.214 3.85139 245.214 3.96382V3.96382C245.215 4.07636 245.193 4.1879 245.15 4.29209C245.107 4.39629 245.044 4.49109 244.964 4.57108C244.884 4.65107 244.789 4.71467 244.685 4.75828C244.58 4.80188 244.468 4.82462 244.354 4.8252L244.348 4.81633Z" fill="#5B5B5B"/>
<path d="M247.67 6.21943C247.67 6.21943 250.626 3.95049 250.601 3.93939C250.626 3.92607 247.653 1.67934 247.653 1.67934C247.308 2.42307 244.706 3.95938 244.71 3.9616C244.668 3.98158 247.321 5.4757 247.67 6.21943Z" fill="#5B5B5B"/>
<path d="M170.579 3.92165C165.241 -0.314282 164.457 3.89722 164.457 3.89722C165.545 8.19975 170.579 3.92165 170.579 3.92165ZM165.89 3.71961C165.944 3.71961 165.996 3.7409 166.034 3.77879C166.073 3.81667 166.094 3.86807 166.094 3.92165C166.093 3.97525 166.071 4.0263 166.032 4.06401C165.994 4.10171 165.942 4.12311 165.888 4.12367C165.834 4.12367 165.782 4.10238 165.744 4.0645C165.706 4.02661 165.684 3.97523 165.684 3.92165C165.684 3.86807 165.706 3.81667 165.744 3.77879C165.782 3.7409 165.834 3.71961 165.888 3.71961H165.89ZM166.461 3.9172C168.924 2.66063 169.256 3.9172 169.256 3.9172C168.747 5.21818 166.461 3.9172 166.461 3.9172V3.9172Z" fill="#5B5B5B"/>
<path d="M170.975 4.49886C171.049 4.49945 171.123 4.48553 171.191 4.4579C171.259 4.43027 171.322 4.38948 171.374 4.33789C171.427 4.28629 171.468 4.2249 171.497 4.15727C171.525 4.08964 171.54 4.0171 171.54 3.94384V3.94384C171.54 3.87058 171.526 3.79794 171.498 3.73008C171.47 3.66223 171.429 3.60052 171.377 3.54851C171.325 3.4965 171.263 3.45521 171.195 3.42705C171.127 3.39888 171.054 3.38437 170.98 3.38438V3.38438C170.906 3.38379 170.833 3.39772 170.764 3.42535C170.696 3.45298 170.634 3.49377 170.581 3.54537C170.529 3.59696 170.487 3.65835 170.459 3.72598C170.43 3.79361 170.416 3.86614 170.416 3.9394V3.9394C170.415 4.01266 170.429 4.08532 170.457 4.15317C170.485 4.22102 170.526 4.28272 170.578 4.33473C170.63 4.38674 170.692 4.42802 170.76 4.45619C170.828 4.48436 170.902 4.49887 170.975 4.49886V4.49886Z" fill="#5B5B5B"/>
<path d="M244.352 3.65523H171.54V4.26131H244.352V3.65523Z" fill="#5B5B5B"/>
<path d="M131.19 33.138L131.016 33.0403C130.944 32.999 130.875 32.9522 130.81 32.9005C130.719 32.8328 130.634 32.7586 130.554 32.6785C130.333 32.4524 130.154 32.1894 130.026 31.9014C129.855 31.509 129.747 31.0925 129.706 30.667C129.619 29.4931 129.753 28.3133 130.102 27.1882C130.302 26.4835 130.559 25.796 130.87 25.1324C131.038 24.7739 131.231 24.4275 131.448 24.0956C131.672 23.7448 131.909 23.3852 132.149 23.0166C133.16 21.4078 134.278 19.8666 135.494 18.4033C136.172 17.6068 136.913 16.8645 137.708 16.1832C138.124 15.8357 138.557 15.5104 139.007 15.2086C139.468 14.9057 139.95 14.635 140.449 14.3982C140.954 14.1603 141.478 13.9657 142.017 13.8166C142.29 13.7389 142.567 13.6856 142.847 13.6279C143.127 13.5701 143.412 13.5391 143.712 13.5213C144.905 13.3874 146.111 13.4203 147.294 13.619C147.883 13.7188 148.457 13.888 149.005 14.1229C149.544 14.3436 150.038 14.6604 150.463 15.0576C150.872 15.4306 151.173 15.906 151.334 16.4341C151.481 16.9495 151.44 17.5 151.217 17.9881C151.185 18.0747 151.143 18.1574 151.092 18.2346C151.04 18.3123 150.998 18.3944 150.944 18.4699C150.83 18.6213 150.702 18.7624 150.563 18.8917C150.275 19.1567 149.951 19.3809 149.601 19.5577C148.86 19.9138 148.062 20.1392 147.243 20.2237C146.413 20.3003 145.578 20.3003 144.748 20.2237C143.944 20.135 143.152 19.957 142.388 19.6931C140.879 19.1572 139.42 18.4885 138.031 17.6951C136.663 16.9402 135.371 16.141 134.144 15.3618C131.681 13.7899 129.486 12.2714 127.525 10.9549C125.563 9.63837 123.853 8.51279 122.438 7.62475C121.074 6.66345 119.381 5.50012 117.33 4.29462C116.234 3.65295 115.105 3.069 113.947 2.54519C112.642 1.94753 111.268 1.51132 109.856 1.24642C109.081 1.10833 108.292 1.06657 107.507 1.1221C106.67 1.18496 105.851 1.39784 105.091 1.75039C104.894 1.83475 104.713 1.95242 104.522 2.05454C104.332 2.15666 104.159 2.29431 103.98 2.41642C103.801 2.53852 103.644 2.68283 103.474 2.83602C103.297 2.99721 103.137 3.17738 103 3.37327C102.702 3.7843 102.523 4.2678 102.482 4.77193C102.449 5.26704 102.525 5.76339 102.706 6.2261C103.064 7.09118 103.613 7.86521 104.314 8.49058C104.993 9.13082 105.774 9.65586 106.625 10.0446C107.048 10.246 107.483 10.4217 107.928 10.5708C108.152 10.6441 108.376 10.6996 108.6 10.7639L108.94 10.8594C109.054 10.8883 109.164 10.906 109.285 10.9305L109.977 11.0703L110.675 11.1636L111.025 11.2124L111.376 11.239L112.082 11.2923C114.858 11.4255 117.525 11.0703 120.048 10.6263C120.68 10.5175 121.302 10.4043 121.918 10.2733L122.382 10.1779C122.547 10.1423 122.706 10.1024 122.865 10.0602C123.179 9.97138 123.483 9.87592 123.781 9.77157C124.968 9.35198 126.067 8.85689 127.14 8.36847C129.269 7.38275 131.251 6.39038 133.123 5.50235C134.995 4.61431 136.748 3.81508 138.378 3.15793C139.834 2.55447 141.33 2.0508 142.856 1.65048C144.003 1.33552 145.19 1.18598 146.381 1.20646C147.135 1.221 147.876 1.40709 148.546 1.75039C148.648 1.80221 148.746 1.8608 148.839 1.92577C148.909 1.96946 148.975 2.01768 149.039 2.07008L149.198 2.19441L149.047 2.05899C148.987 2.0016 148.923 1.94889 148.855 1.90135C148.765 1.83017 148.671 1.76491 148.573 1.70598C147.911 1.31316 147.166 1.07832 146.396 1.01999C145.183 0.927574 143.962 1.0121 142.773 1.27086C141.204 1.59881 139.661 2.03955 138.156 2.58959C136.479 3.18235 134.681 3.92164 132.771 4.74973C130.861 5.57783 128.844 6.51248 126.725 7.43603C125.66 7.89559 124.562 8.35738 123.434 8.73257C123.152 8.82804 122.87 8.91018 122.585 8.98344C122.444 9.01896 122.303 9.05226 122.164 9.07891L121.717 9.16327C121.105 9.27649 120.49 9.38527 119.865 9.48739C117.379 9.89145 114.782 10.2089 112.158 10.0824L111.486 10.0313L111.157 10.0069L110.83 9.9625L110.178 9.87813L109.542 9.75159C109.437 9.72938 109.33 9.71385 109.224 9.68721L108.915 9.60284C108.712 9.54512 108.501 9.49629 108.302 9.42968C107.904 9.30039 107.514 9.14691 107.135 8.97012C106.389 8.63902 105.703 8.18905 105.104 7.63807C104.526 7.13728 104.067 6.5155 103.761 5.81759C103.632 5.50767 103.572 5.17359 103.586 4.83854C103.604 4.52008 103.71 4.21266 103.893 3.95051C103.986 3.81318 104.094 3.68659 104.215 3.57309C104.341 3.4532 104.493 3.33332 104.63 3.21343C104.766 3.09355 104.925 2.99143 105.077 2.89596C105.23 2.8005 105.386 2.70503 105.552 2.62955C106.849 1.96352 108.344 1.89469 109.735 2.09228C111.087 2.30503 112.409 2.67771 113.671 3.20232C114.826 3.67354 115.956 4.20184 117.057 4.78525C119.135 5.88197 120.877 6.95872 122.287 7.84231C123.649 8.80139 125.299 10.0091 127.198 11.4122C129.097 12.8153 131.244 14.4138 133.667 16.0744C134.878 16.9025 136.163 17.7439 137.543 18.5498C138.97 19.4086 140.475 20.1326 142.039 20.7122C142.882 21.0187 143.757 21.2287 144.648 21.3382C145.558 21.4297 146.475 21.4357 147.386 21.356C148.349 21.2644 149.288 21.0059 150.16 20.5923C150.616 20.3609 151.037 20.0672 151.41 19.7198C151.603 19.5404 151.78 19.3443 151.938 19.1337C152.014 19.0249 152.082 18.9117 152.162 18.794C152.235 18.6795 152.296 18.5583 152.346 18.4321C152.679 17.6941 152.74 16.8636 152.518 16.0855C152.297 15.3495 151.88 14.6866 151.309 14.1674C150.78 13.679 150.165 13.2901 149.495 13.0196C148.861 12.7547 148.197 12.5662 147.518 12.4579C146.23 12.2572 144.92 12.24 143.627 12.4068C143.315 12.4335 142.997 12.4912 142.682 12.5445C142.366 12.5977 142.059 12.6821 141.757 12.7665C141.161 12.9428 140.581 13.1717 140.026 13.4503C139.49 13.7197 138.973 14.0268 138.481 14.3694C138.009 14.7051 137.555 15.0661 137.122 15.4506C136.311 16.186 135.562 16.9856 134.883 17.8416C133.696 19.3708 132.62 20.9806 131.661 22.6592L131.007 23.7692C130.795 24.1303 130.608 24.5056 130.449 24.8926C130.158 25.5921 129.926 26.3147 129.757 27.0527C129.459 28.2284 129.387 29.4495 129.547 30.6515C129.615 31.0888 129.752 31.5127 129.952 31.9081C130.103 32.1958 130.304 32.4551 130.545 32.674C130.631 32.7501 130.724 32.8192 130.821 32.8805C130.891 32.9294 130.966 32.9717 131.045 33.007L131.19 33.138Z" fill="#5B5B5B"/>
<path d="M131.21 33.138L131.394 33.0514C131.472 33.0151 131.547 32.9728 131.618 32.9249C131.715 32.8625 131.807 32.7935 131.893 32.7184C132.135 32.4999 132.335 32.2406 132.484 31.9525C132.686 31.5573 132.823 31.1333 132.892 30.6959C133.051 29.4938 132.979 28.2727 132.679 27.0972C132.51 26.3595 132.279 25.6369 131.99 24.937C131.83 24.55 131.643 24.1746 131.43 23.8136L130.778 22.7036C129.818 21.025 128.741 19.4152 127.554 17.886C126.875 17.0295 126.126 16.2298 125.315 15.495C124.883 15.1105 124.43 14.7496 123.958 14.4138C123.465 14.0717 122.948 13.7646 122.411 13.4947C121.856 13.2157 121.276 12.9868 120.68 12.8109C120.38 12.7176 120.068 12.651 119.755 12.5889C119.442 12.5267 119.121 12.4779 118.81 12.4512C117.517 12.2844 116.207 12.3016 114.918 12.5023C114.239 12.6106 113.575 12.7991 112.941 13.064C112.272 13.3345 111.657 13.7234 111.128 14.2118C110.557 14.731 110.139 15.3939 109.918 16.1299C109.698 16.9081 109.759 17.7382 110.091 18.4765C110.14 18.6027 110.202 18.7239 110.274 18.8384C110.346 18.9516 110.413 19.0604 110.498 19.1781C110.656 19.3881 110.833 19.5842 111.025 19.7642C111.399 20.1106 111.819 20.4042 112.274 20.6367C113.147 21.0503 114.086 21.3088 115.048 21.4004C115.96 21.4801 116.877 21.4742 117.787 21.3827C118.678 21.2731 119.554 21.0631 120.398 20.7566C121.961 20.177 123.467 19.453 124.894 18.5942C126.273 17.7883 127.556 16.9469 128.77 16.1188C131.193 14.4582 133.335 12.8553 135.239 11.4566C137.142 10.058 138.785 8.8458 140.147 7.88672C141.557 6.99869 143.3 5.92638 145.377 4.82966C146.419 4.28351 147.545 3.73959 148.763 3.24673C150.027 2.72211 151.349 2.34944 152.702 2.13669C154.09 1.9391 155.586 2.01903 156.882 2.67396C157.048 2.74944 157.198 2.85377 157.357 2.94036C157.516 3.02694 157.655 3.15127 157.805 3.25783C157.955 3.36439 158.094 3.49761 158.221 3.6175C158.342 3.73102 158.449 3.85761 158.541 3.9949C158.725 4.25705 158.831 4.56448 158.848 4.88294C158.862 5.21799 158.803 5.55208 158.673 5.862C158.366 6.55958 157.908 7.18124 157.33 7.68248C156.73 8.23398 156.044 8.684 155.297 9.01453C154.918 9.19169 154.528 9.34517 154.13 9.47408C153.931 9.54068 153.723 9.58953 153.517 9.64725L153.208 9.73162C153.105 9.75826 152.997 9.77379 152.89 9.79599L152.254 9.92254L151.602 10.0069L151.278 10.0513L150.946 10.0757L150.274 10.1268C147.65 10.2533 145.053 9.93586 142.567 9.5318C141.945 9.4319 141.327 9.3098 140.716 9.20768L140.268 9.12331C140.129 9.09667 139.988 9.06337 139.847 9.02785C139.565 8.95459 139.28 8.87244 138.998 8.77698C137.879 8.40179 136.775 7.94 135.709 7.48044C133.577 6.55689 131.56 5.62223 129.65 4.79414C127.74 3.96605 125.942 3.22675 124.276 2.63399C122.771 2.08453 121.228 1.6438 119.659 1.31525C118.469 1.05647 117.248 0.971957 116.034 1.06439C115.265 1.12267 114.521 1.35753 113.859 1.75039C113.76 1.80935 113.665 1.87461 113.575 1.94576C113.507 1.99387 113.443 2.04654 113.382 2.10339L113.235 2.23882L113.391 2.11449C113.455 2.06214 113.523 2.01393 113.593 1.97018C113.686 1.90518 113.783 1.84659 113.884 1.7948C114.554 1.45187 115.295 1.2658 116.049 1.25087C117.239 1.23026 118.426 1.37981 119.574 1.69489C121.099 2.09527 122.596 2.59893 124.052 3.20233C125.682 3.86835 127.435 4.65649 129.305 5.54674C131.175 6.437 133.161 7.42716 135.29 8.41288C136.358 8.9013 137.458 9.39638 138.649 9.81598C138.944 9.92032 139.249 10.0158 139.562 10.1046C139.721 10.1468 139.88 10.1867 140.046 10.2223L140.51 10.3177C141.125 10.4398 141.748 10.5619 142.379 10.6707C144.903 11.1147 147.57 11.4655 150.346 11.3367L151.051 11.2835L151.403 11.2568L151.755 11.208L152.451 11.1147L153.143 10.9749C153.259 10.9504 153.367 10.9327 153.488 10.9038L153.828 10.8084C154.052 10.744 154.276 10.6885 154.5 10.6152C154.944 10.4657 155.378 10.29 155.801 10.089C156.652 9.70026 157.432 9.17522 158.111 8.53499C158.812 7.90962 159.362 7.13558 159.719 6.27049C159.9 5.80779 159.976 5.31145 159.943 4.81634C159.902 4.31221 159.723 3.82871 159.426 3.41768C159.288 3.22179 159.129 3.04161 158.951 2.88043C158.783 2.72724 158.613 2.60069 158.445 2.46083C158.277 2.32096 158.089 2.21217 157.905 2.09895C157.722 1.98572 157.531 1.87694 157.334 1.7948C156.574 1.4415 155.756 1.22859 154.918 1.16651C154.133 1.11105 153.344 1.15281 152.57 1.29083C151.157 1.55608 149.784 1.99227 148.479 2.58959C147.321 3.11339 146.193 3.69735 145.098 4.33903C143.044 5.54009 141.354 6.70342 139.988 7.66916C138.573 8.55719 136.853 9.68278 134.903 10.9993C132.952 12.3158 130.736 13.8343 128.282 15.4062C127.055 16.1899 125.763 16.9846 124.394 17.7395C123.005 18.5329 121.547 19.2016 120.037 19.7376C119.273 20.0017 118.481 20.1797 117.677 20.2682C116.847 20.3448 116.012 20.3448 115.183 20.2682C114.364 20.1837 113.566 19.9583 112.825 19.6021C112.475 19.4254 112.152 19.2013 111.864 18.9361C111.724 18.8069 111.596 18.6657 111.481 18.5143C111.428 18.4388 111.385 18.3566 111.334 18.2789C111.283 18.2017 111.242 18.119 111.21 18.0325C110.986 17.5449 110.944 16.994 111.092 16.4785C111.253 15.9508 111.554 15.4756 111.963 15.102C112.388 14.7047 112.883 14.388 113.423 14.1674C113.97 13.9318 114.545 13.7626 115.133 13.6634C116.317 13.4647 117.523 13.4318 118.716 13.5657C119.014 13.5835 119.296 13.6301 119.578 13.6723C119.86 13.7145 120.138 13.7833 120.409 13.861C120.947 14.0106 121.471 14.2051 121.976 14.4427C122.474 14.6794 122.956 14.9501 123.416 15.253C123.866 15.5548 124.3 15.8801 124.715 16.2276C125.51 16.9089 126.251 17.6512 126.929 18.4477C128.146 19.911 129.264 21.4521 130.277 23.061L130.978 24.14C131.193 24.4724 131.385 24.8188 131.553 25.1768C131.866 25.8396 132.123 26.5273 132.321 27.2326C132.671 28.3575 132.805 29.5375 132.717 30.7114C132.676 31.1369 132.568 31.5534 132.397 31.9458C132.269 32.2336 132.091 32.4967 131.871 32.7229C131.791 32.8036 131.705 32.8779 131.613 32.9449C131.549 32.9966 131.481 33.0433 131.41 33.0847L131.21 33.138Z" fill="#5B5B5B"/>
<path d="M131.365 32.8383C127.63 37.2607 131.228 38 131.228 38C134.941 37.163 131.365 32.8383 131.365 32.8383ZM131.103 36.7878C131.108 36.7456 131.128 36.7065 131.16 36.6782C131.192 36.6499 131.234 36.6342 131.277 36.6342C131.319 36.6342 131.361 36.6499 131.393 36.6782C131.425 36.7065 131.445 36.7456 131.45 36.7878C131.448 36.8336 131.429 36.8768 131.395 36.9083C131.362 36.9399 131.317 36.9572 131.271 36.9565C131.227 36.9549 131.184 36.9365 131.153 36.9052C131.122 36.8738 131.104 36.8318 131.103 36.7878V36.7878ZM131.284 36.3105C130.252 34.2214 131.347 33.955 131.347 33.955C132.442 34.4146 131.284 36.3105 131.284 36.3105Z" fill="#5B5B5B"/>
<path d="M131.867 32.5164C131.868 32.4541 131.858 32.3921 131.835 32.3339C131.813 32.2757 131.779 32.2225 131.736 32.1773C131.692 32.1321 131.64 32.0958 131.583 32.0706C131.526 32.0453 131.464 32.0316 131.401 32.0302V32.0302C131.338 32.0284 131.275 32.039 131.217 32.0612C131.158 32.0835 131.104 32.1171 131.059 32.16C131.013 32.2029 130.977 32.2543 130.951 32.3113C130.926 32.3683 130.912 32.4297 130.91 32.492V32.492C130.909 32.5542 130.919 32.6163 130.942 32.6745C130.964 32.7327 130.998 32.7859 131.041 32.8311C131.085 32.8762 131.136 32.9125 131.194 32.9377C131.251 32.963 131.313 32.9767 131.376 32.9782V32.9782C131.439 32.9799 131.502 32.9694 131.56 32.9471C131.619 32.9248 131.673 32.8913 131.718 32.8484C131.764 32.8054 131.8 32.754 131.826 32.697C131.851 32.6401 131.865 32.5787 131.867 32.5164V32.5164Z" fill="#5B5B5B"/>
<path d="M10.4021 3.90165C2.20241 -2.60321 0.997757 3.86391 0.997757 3.86391C2.67263 10.4731 10.4021 3.90165 10.4021 3.90165ZM3.19885 3.59083C3.26094 3.59083 3.32164 3.60913 3.37324 3.64338C3.42483 3.67763 3.46503 3.72629 3.48869 3.78322C3.51235 3.84014 3.51841 3.90276 3.50613 3.96311C3.49385 4.02346 3.46377 4.07883 3.4197 4.12221C3.37564 4.16558 3.31956 4.19502 3.2586 4.20676C3.19764 4.2185 3.13457 4.21202 3.07733 4.18816C3.02008 4.16429 2.97128 4.12411 2.93711 4.07271C2.90293 4.0213 2.88489 3.96099 2.88534 3.89942C2.8859 3.81852 2.91831 3.74102 2.97559 3.68339C3.03287 3.62577 3.11054 3.59256 3.19212 3.59083H3.19885ZM4.07882 3.8972C7.84057 1.96573 8.36904 3.91274 8.36904 3.91274C7.58534 5.89306 4.08778 3.8972 4.08778 3.8972H4.07882Z" fill="#5B5B5B"/>
<path d="M11.0089 4.78969C11.1224 4.78998 11.2349 4.76811 11.3399 4.72531C11.4449 4.68251 11.5403 4.61964 11.6208 4.54027C11.7012 4.4609 11.7652 4.36659 11.8089 4.26273C11.8526 4.15887 11.8752 4.0475 11.8755 3.93496V3.93496C11.8761 3.82253 11.8543 3.71108 11.8114 3.60701C11.7685 3.50295 11.7053 3.40828 11.6254 3.32847C11.5455 3.24866 11.4505 3.18526 11.3459 3.1419C11.2413 3.09854 11.1291 3.07608 11.0157 3.07579C10.9023 3.0752 10.7899 3.0968 10.6849 3.13935C10.58 3.18191 10.4845 3.24458 10.404 3.32377C10.3235 3.40296 10.2596 3.49713 10.2158 3.60086C10.1721 3.7046 10.1494 3.81586 10.1492 3.92829V3.92829C10.1486 4.04083 10.1703 4.15238 10.2132 4.25658C10.2561 4.36077 10.3193 4.45556 10.3991 4.53555C10.479 4.61554 10.5739 4.67916 10.6785 4.72276C10.7832 4.76637 10.8954 4.78911 11.0089 4.78969V4.78969Z" fill="#5B5B5B"/>
<path d="M17.6458 4.81633C17.7593 4.81662 17.8717 4.79475 17.9767 4.75195C18.0817 4.70916 18.1771 4.64628 18.2576 4.56691C18.3381 4.48754 18.402 4.39323 18.4457 4.28937C18.4894 4.18551 18.512 4.07414 18.5123 3.9616C18.5129 3.84917 18.4911 3.73773 18.4482 3.63366C18.4053 3.52959 18.3421 3.43494 18.2622 3.35513C18.1823 3.27532 18.0874 3.2119 17.9827 3.16854C17.8781 3.12518 17.7659 3.10272 17.6525 3.10243C17.5391 3.10184 17.4267 3.12344 17.3217 3.16599C17.2168 3.20855 17.1213 3.27122 17.0408 3.35041C16.9603 3.42961 16.8964 3.52377 16.8526 3.6275C16.8089 3.73124 16.7862 3.8425 16.7859 3.95493C16.7853 4.06747 16.8071 4.17902 16.85 4.28322C16.8929 4.38741 16.9561 4.48221 17.0359 4.56219C17.1158 4.64218 17.2107 4.7058 17.3154 4.74941C17.42 4.79301 17.5323 4.81575 17.6458 4.81633V4.81633Z" fill="#5B5B5B"/>
<path d="M14.3318 6.21943C14.3318 6.21943 11.3761 3.95049 11.4008 3.93939C11.3761 3.92607 14.3498 1.67934 14.3498 1.67934C14.6946 2.42307 17.2964 3.95938 17.292 3.9616C17.3345 3.98158 14.6811 5.4757 14.3318 6.21943Z" fill="#5B5B5B"/>
<path d="M97.5428 3.89721C97.5428 3.89721 96.7613 -0.320949 91.421 3.92164C91.4142 3.92164 96.4568 8.19974 97.5428 3.89721ZM96.3157 3.91942C96.3161 3.95947 96.3046 3.99874 96.2825 4.03225C96.2603 4.06577 96.2287 4.09201 96.1915 4.10765C96.1543 4.12328 96.1133 4.12759 96.0736 4.12004C96.0339 4.1125 95.9974 4.09344 95.9687 4.06527C95.94 4.03711 95.9204 4.00112 95.9123 3.96187C95.9043 3.92262 95.9082 3.88188 95.9235 3.84484C95.9389 3.80779 95.965 3.77612 95.9985 3.75382C96.0321 3.73152 96.0716 3.71961 96.112 3.7196C96.1656 3.7196 96.2171 3.74058 96.2552 3.77799C96.2934 3.8154 96.3151 3.86622 96.3157 3.91942V3.91942ZM92.7465 3.91942C92.7465 3.91942 93.0891 2.65175 95.5387 3.91942C95.5387 3.9172 93.2548 5.21816 92.7577 3.92829L92.7465 3.91942Z" fill="#5B5B5B"/>
<path d="M91.0269 4.49886C90.953 4.49945 90.8797 4.48553 90.8113 4.4579C90.7429 4.43027 90.6806 4.38948 90.6282 4.33789C90.5757 4.28629 90.5341 4.2249 90.5056 4.15727C90.4772 4.08964 90.4626 4.0171 90.4626 3.94384V3.94384C90.462 3.87058 90.4761 3.79794 90.504 3.73008C90.5318 3.66223 90.5729 3.60052 90.625 3.54851C90.677 3.4965 90.7389 3.45521 90.8071 3.42705C90.8753 3.39888 90.9485 3.38437 91.0224 3.38438V3.38438C91.0963 3.38379 91.1696 3.39772 91.238 3.42535C91.3065 3.45298 91.3687 3.49377 91.4212 3.54537C91.4736 3.59696 91.5152 3.65835 91.5437 3.72598C91.5721 3.79361 91.5867 3.86614 91.5867 3.9394V3.9394C91.5873 4.01266 91.5732 4.08532 91.5454 4.15317C91.5175 4.22102 91.4764 4.28272 91.4243 4.33473C91.3723 4.38674 91.3104 4.42802 91.2422 4.45619C91.174 4.48436 91.1008 4.49887 91.0269 4.49886V4.49886Z" fill="#5B5B5B"/>
<path d="M90.4604 3.65523H17.648V4.26131H90.4604V3.65523Z" fill="#5B5B5B"/>
</svg>
